# xmcd
# 
# Track frame offsets:
#     150
#     12865
#     25682
#     39857
#     55192
#     70319
#     87050
#     100736
#     115831
#     131004
#     146124
#     161779
#     175008
#     187702
# 
# Disc length: 2699
# 
# Revision: 6
# Processed by: cddbd v1.5.2PL0 Copyright (c) Steve Scherf et al.
# Submitted via: BonkEnc v1.0
# 
DISCID=ab0a890e
DTITLE=Rio Negro and Solimões - Clube do Batidão - Clube do Batidão
DYEAR=2005
DGENRE=Sertanejo
TTITLE0=Balançou, sacudiu
TTITLE1=Clube do batidão
TTITLE2=Ajeite o trem aí
TTITLE3=Casa, comida
TTITLE4=Sozinho outra vez
TTITLE5=Ela foi embora
TTITLE6=Festa de peão
TTITLE7=Deus me livre
TTITLE8=Você chegou e abalou
TTITLE9=Tô mal
TTITLE10=O carro dela quebrou
TTITLE11=Apuros
TTITLE12=Eu de cá, você de lá
TTITLE13=O amor me pegou
EXTD=
EXTT0=
EXTT1=
EXTT2=
EXTT3=
EXTT4=
EXTT5=
EXTT6=
EXTT7=
EXTT8=
EXTT9=
EXTT10=
EXTT11=
EXTT12=
EXTT13=
PLAYORDER=
